<svg xmlns="http://www.w3.org/2000/svg" width="87" height="47" viewBox="0 0 87 47">
  <g fill="#2A44EC" fill-rule="evenodd">
    <path d="M12.6 29.7C9.1206 29.7 6.3 26.8794 6.3 23.4 6.3 19.9206 9.1206 17.1 12.6 17.1 16.08 17.1 18.9 19.9206 18.9 23.4 18.9 26.8794 16.08 29.7 12.6 29.7M12.6 10.8C10.6332 10.8 8.7768 11.1588 7.11 11.8362 7.0992 11.4174 7.0878 11.1198 7.0764 11.0004 5.5818 10.7334 1.7226 10.7334.1872 11.0004-.0624 12.645-.0624 44.9658.1872 46.5666 1.8876 46.878 5.748 46.878 7.0764 46.5666 7.1376 45.8076 7.176 40.9326 7.1916 35.022 8.835 35.6748 10.6698 36 12.6 36 19.461 36 25.2 31.8438 25.2 23.4 25.2 14.9556 19.461 10.8 12.6 10.8M28.9869.1998C30.5229-.0666 34.3815-.0666 35.8755.1998 36.0417 1.845 36.0417 33.7218 35.8755 35.7666 34.5483 36.078 30.6879 36.078 28.9869 35.7666 28.7379 34.1658 28.7379 1.845 28.9869.1998M52.2 29.7C48.7206 29.7 45.9 26.8794 45.9 23.4 45.9 19.9206 48.7206 17.1 52.2 17.1 53.9394 17.1 55.5144 17.805 56.655 18.945L61.377 14.223C59.0634 11.9346 55.785 10.8 52.1994 10.8 49.9134 10.8 47.76 11.256 45.9018 12.1716 42.1482 14.022 39.6 17.7516 39.6 23.4 39.6 24.6648 39.7278 25.8342 39.9684 26.9076 40.7376 30.3372 42.66 32.7888 45.24 34.275 47.2404 35.4276 49.6368 36 52.1994 36 55.785 36 59.0634 34.8648 61.377 32.577L56.655 27.855C55.5144 28.9944 53.9394 29.7 52.2 29.7"/>
    <path d="M73.8,29.7 C70.3206,29.7 67.5,26.8794 67.5,23.4 C67.5,19.9206 70.3206,17.1 73.8,17.1 C77.2794,17.1 80.1,19.9206 80.1,23.4 C80.1,26.8794 77.2794,29.7 73.8,29.7 M73.7994,10.8 C71.5128,10.8 69.36,11.256 67.5018,12.1716 C63.7482,14.022 61.2,17.7516 61.2,23.4 C61.2,24.6648 61.3278,25.8342 61.5684,26.9076 C62.3376,30.3372 64.26,32.7888 66.84,34.275 C68.8404,35.4276 71.2368,36 73.7994,36 C80.661,36 86.4,31.8438 86.4,23.4 C86.4,14.9556 80.661,10.8 73.7994,10.8"/>
  </g>
</svg>
